# xmcd CD database file
#
# Track frame offsets:
#	150
#	20222
#	40175
#
# Disc length: 826 seconds
#
# Revision: 0
# Processed by: cddbd v1.5.1PL0 Copyright (c) Steve Scherf et al.
# Submitted via: CDex 1.51
#
DISCID=20033803
DTITLE=rough laugh - バッド・カンパニー
DYEAR=1900
DGENRE=
TTITLE0=バッド・カンパニー
TTITLE1=デジタル・ローカスト (蜩Mix)
TTITLE2=誰がために鐘は鳴る (Strings Version)
EXTD=
EXTT0=
EXTT1=
EXTT2=
PLAYORDER=
